<svg width="103" height="20" viewBox="0 0 103 20" fill="none" xmlns="http://www.w3.org/2000/svg">
<g opacity="0.88">
<path d="M0 10C0 4.47715 4.47715 0 10 0H93C98.5228 0 103 4.47715 103 10V10C103 15.5228 98.5228 20 93 20H10C4.47715 20 0 15.5228 0 10V10Z" fill="black" fill-opacity="0.8"/>
<path d="M10.7138 12.8858H13.3203C14.5135 12.8858 15.2131 12.2821 15.2131 11.4156C15.2131 10.606 14.5916 10.1088 13.8636 10.0236C14.5348 9.89573 14.9787 9.52641 14.9787 8.88721C14.9787 7.99232 14.2045 7.43124 12.9758 7.43124H10.7138V12.8858ZM11.7116 11.998V10.4817H13.3203C13.8459 10.4817 14.1619 10.7906 14.1619 11.2984C14.1619 11.7317 13.8459 11.998 13.3203 11.998H11.7116ZM11.7116 9.70397V8.32968H12.9758C13.5795 8.32968 13.9453 8.58181 13.9453 9.00085C13.9453 9.43764 13.5831 9.70397 12.9865 9.70397H11.7116Z" fill="white"/>
<path d="M17.4183 9.30624V7.43124H16.3778V12.8858H18.7607C20.0959 12.8858 20.8416 12.1116 20.8416 11.0854C20.8416 10.0378 20.0959 9.30624 18.7607 9.30624H17.4183ZM21.6158 12.8858H22.6776V7.43124H21.6158V12.8858ZM17.4183 10.2224H18.7607C19.3714 10.2224 19.8082 10.5918 19.8082 11.1173C19.8082 11.6145 19.3714 11.9696 18.7607 11.9696H17.4183V10.2224Z" fill="white"/>
<path d="M28.3105 5.39999C28.0442 5.61306 27.6394 5.61306 27.0747 5.60951C26.9078 5.60951 26.7267 5.60951 26.5279 5.61306C24.7594 5.64857 23.8645 6.90568 23.8645 9.39857V9.93835C23.8645 11.9412 24.8588 12.9959 26.3823 12.9959C27.9057 12.9959 28.8929 11.9376 28.8929 10.2402C28.8929 8.56406 27.9235 7.63721 26.6095 7.63721C25.8176 7.63721 25.1571 7.97457 24.802 8.64928H24.7345C24.8553 7.26789 25.3738 6.58252 26.5527 6.54701C27.6003 6.51505 28.2644 6.5186 28.7509 6.07116L28.3105 5.39999ZM26.3858 12.1045C25.4838 12.1045 24.9334 11.3837 24.9334 10.2579C24.9476 9.15354 25.4909 8.52144 26.3752 8.52144C27.2736 8.52144 27.8205 9.15354 27.8205 10.2579C27.8205 11.3872 27.2736 12.1045 26.3858 12.1045Z" fill="white"/>
<path d="M32.3766 12.9959C33.9142 12.9959 34.9192 11.8702 34.9192 10.1834C34.9192 8.48593 33.9142 7.36022 32.3766 7.36022C30.839 7.36022 29.834 8.48593 29.834 10.1834C29.834 11.8702 30.839 12.9959 32.3766 12.9959ZM32.3801 12.1045C31.3752 12.1045 30.9064 11.2274 30.9064 10.1798C30.9064 9.13579 31.3752 8.248 32.3801 8.248C33.378 8.248 33.8468 9.13579 33.8468 10.1798C33.8468 11.2274 33.378 12.1045 32.3801 12.1045Z" fill="white"/>
<path d="M36.1044 14.9312H37.1662V12.0371H37.2301C37.4219 12.3851 37.8125 12.9923 38.8068 12.9923C40.1278 12.9923 41.0866 11.9341 41.0866 10.1692C41.0866 8.4007 40.1136 7.36022 38.7962 7.36022C37.7841 7.36022 37.4183 7.97812 37.2301 8.31548H37.1413V7.43124H36.1044V14.9312ZM37.1449 10.1585C37.1449 9.0186 37.642 8.26221 38.5689 8.26221C39.5312 8.26221 40.0142 9.07542 40.0142 10.1585C40.0142 11.2523 39.517 12.0868 38.5689 12.0868C37.6562 12.0868 37.1449 11.3055 37.1449 10.1585Z" fill="white"/>
<path d="M44.9228 14.9312H45.9846V12.0371H46.0485C46.2402 12.3851 46.6309 12.9923 47.6252 12.9923C48.9462 12.9923 49.905 11.9341 49.905 10.1692C49.905 8.4007 48.932 7.36022 47.6145 7.36022C46.6024 7.36022 46.2367 7.97812 46.0485 8.31548H45.9597V7.43124H44.9228V14.9312ZM45.9632 10.1585C45.9632 9.0186 46.4604 8.26221 47.3872 8.26221C48.3496 8.26221 48.8326 9.07542 48.8326 10.1585C48.8326 11.2523 48.3354 12.0868 47.3872 12.0868C46.4746 12.0868 45.9632 11.3055 45.9632 10.1585Z" fill="white"/>
<path d="M53.4455 12.9959C54.6351 12.9959 55.4767 12.4099 55.7182 11.5222L54.7132 11.341C54.5215 11.856 54.0598 12.1187 53.4561 12.1187C52.547 12.1187 51.9363 11.5293 51.9078 10.4781H55.7857V10.1017C55.7857 8.13082 54.6067 7.36022 53.3709 7.36022C51.851 7.36022 50.8496 8.51789 50.8496 10.194C50.8496 11.8879 51.8368 12.9959 53.4455 12.9959ZM51.9114 9.68266C51.954 8.90852 52.5151 8.23735 53.378 8.23735C54.2019 8.23735 54.7416 8.84815 54.7452 9.68266H51.9114Z" fill="white"/>
<path d="M56.4311 14.4589H57.4822V12.8858H61.2855V14.4589H62.3224V11.966H61.4844V7.43124H57.777L57.6065 9.46604C57.4929 10.8403 57.326 11.5577 56.875 11.966H56.4311V14.4589ZM58.0114 11.966C58.3736 11.4582 58.5085 10.6131 58.6151 9.46604L58.7287 8.34033H60.4474V11.966H58.0114Z" fill="white"/>

<path d="M64.9476 13.0065C65.8496 13.0065 66.3574 12.5484 66.5598 12.1401H66.6024V12.8858H67.6394V9.26363C67.6394 7.67627 66.3894 7.36022 65.5229 7.36022C64.5357 7.36022 63.6266 7.75795 63.2715 8.75227L64.2693 8.97954C64.4256 8.59247 64.8233 8.2196 65.5371 8.2196C66.2225 8.2196 66.574 8.57826 66.574 9.19616V9.22102C66.574 9.60809 66.1763 9.60099 65.1962 9.71462C64.1628 9.83536 63.1046 10.1052 63.1046 11.3446C63.1046 12.417 63.9107 13.0065 64.9476 13.0065ZM65.1784 12.1543C64.5783 12.1543 64.1451 11.8844 64.1451 11.3588C64.1451 10.7906 64.6493 10.5882 65.2637 10.5065C65.6081 10.4604 66.4249 10.368 66.5776 10.2153V10.9185C66.5776 11.5648 66.0627 12.1543 65.1784 12.1543Z" fill="white"/>
<path d="M69.0536 12.8858H70.1154V10.7054H70.8043L72.4485 12.8858H73.766L71.6282 10.0839L73.7411 7.43124H72.4272L70.6268 9.71818H70.1154V7.43124H69.0536V12.8858Z" fill="white"/>
<path d="M79.0368 7.43124H78.0034V11.9696H75.6277V7.43124H74.5872V12.8858H79.0368V14.6436H80.0879V12.0158H79.0368V7.43124Z" fill="white"/>
<path d="M82.2425 11.3979V7.43124H81.2021V12.8858H82.3562L84.7496 8.91562V12.8858H85.7901V7.43124H84.6467L82.2425 11.3979Z" fill="white"/>
<path d="M88.2582 11.3979V7.43124H87.2177V12.8858H88.3718L90.7653 8.91562V12.8858H91.8058V7.43124H90.6623L88.2582 11.3979Z" fill="white"/>
</g>
</svg>