<svg width="16" height="13" viewBox="0 0 16 13" fill="none" xmlns="http://www.w3.org/2000/svg">
<path d="M0.98181 5.66164L10.5119 1.80289C11.4526 1.40097 14.643 0.114756 14.643 0.114756C14.643 0.114756 16.1155 -0.447916 15.9927 0.918609C15.9518 1.48128 15.6248 3.45093 15.2974 5.58109L14.2749 11.8916C14.2749 11.8916 14.1931 12.8161 13.4966 12.9769C12.8001 13.1376 11.656 12.4142 11.4517 12.2533C11.2881 12.1328 8.38402 10.324 7.32051 9.43972C7.03418 9.19866 6.70703 8.71618 7.36144 8.15351C8.83393 6.82708 10.5928 5.17905 11.656 4.13402C12.1469 3.65166 12.6377 2.5262 10.5926 3.89295L4.82555 7.71148C4.82555 7.71148 4.17103 8.11341 2.94407 7.7517C1.71711 7.38999 0.285542 6.90763 0.285542 6.90763C0.285542 6.90763 -0.696121 6.30474 0.980866 5.66175L0.98181 5.66164Z" fill="#888888"/>
</svg>
