<svg width="14" height="12" viewBox="0 0 14 12" fill="none" xmlns="http://www.w3.org/2000/svg">
<path d="M12.9508 10.7436C12.841 10.6866 12.7861 10.5159 12.7861 10.401V1.71396C12.7861 1.60015 12.841 1.42944 12.9508 1.31449L13.9989 0.0569046V0H10.2509L7.4412 7.37253L4.24302 0H0.386328V0.0569046L1.37739 1.48634C1.59799 1.71396 1.65287 2.05766 1.65287 2.34332V8.62898C1.70775 8.97269 1.65287 9.37216 1.48824 9.71472L0 11.8293V11.8862H3.96864V11.8293L2.4804 9.77276C2.31577 9.42906 2.2598 9.0865 2.31577 8.68703V2.97041C2.37065 3.08422 2.42553 3.08422 2.4804 3.31297L6.22734 12H6.28222L9.92161 2.57208C9.86673 2.91351 9.86673 3.31411 9.86673 3.60091V10.3441C9.86673 10.5148 9.81185 10.6286 9.7021 10.7436L8.59909 11.8293V11.8862H14V11.8293L12.953 10.7436H12.9508Z" fill="black"/>
</svg>
